<?xml version="1.0" standalone="no"?><!DOCTYPE svg PUBLIC "-//W3C//DTD SVG 1.1//EN" "http://www.w3.org/Graphics/SVG/1.1/DTD/svg11.dtd"><svg t="1619706790759" class="icon" viewBox="0 0 1024 1024" version="1.1" xmlns="http://www.w3.org/2000/svg" p-id="1327" xmlns:xlink="http://www.w3.org/1999/xlink" width="200" height="200"><defs><style type="text/css"></style></defs><path d="M984 576c22.092 0 40-17.908 40-40V240c0-88.224-71.776-160-160-160H160C71.776 80 0 151.776 0 240v544c0 88.224 71.776 160 160 160h704c88.224 0 160-71.776 160-160v-8a40.004 40.004 0 0 0-14.92-31.162L706.254 501.106 944 353.27V536c0 22.092 17.908 40 40 40zM80 353.27l237.684 147.798L80 691.84z m863.302 441.32C938.106 833.716 904.524 864 864 864H160c-40.75 0-74.482-30.626-79.386-70.07L389.7 545.848l37.81 23.512c52.114 32.41 116.864 32.406 168.98 0l37.782-23.494zM554.246 501.424c-26.058 16.204-58.432 16.204-84.49 0L81.122 259.762a40.538 40.538 0 0 0-1.122-0.672V240c0-44.112 35.888-80 80-80h704c44.112 0 80 35.888 80 80v19.064z" p-id="1328"></path></svg>