<?xml version="1.0" standalone="no"?><!DOCTYPE svg PUBLIC "-//W3C//DTD SVG 1.1//EN" "http://www.w3.org/Graphics/SVG/1.1/DTD/svg11.dtd"><svg t="1619706805352" class="icon" viewBox="0 0 1024 1024" version="1.1" xmlns="http://www.w3.org/2000/svg" p-id="1463" xmlns:xlink="http://www.w3.org/1999/xlink" width="200" height="200"><defs><style type="text/css"></style></defs><path d="M1006.954033 227.707555a40.007922 40.007922 0 0 0-36.613928-4.83599L752.336531 302.07941c-55.735891 18.933963-90.335824 63.375876-90.335824 116.087773v276.69746c-117.263771-79.935844-280.849451 6.661987-279.997453 149.601708 9.879981 238.781534 350.143316 238.731534 359.997297-0.002V418.167183c0-24.543952 22.757956-35.86393 36.321929-40.425921 0.303999-0.102 0.607999-0.208 0.907998-0.317999l164.769678-59.867883v73.847856c0 18.789963-11.999977 35.335931-29.859941 41.171919-0.236 0.078-0.469999 0.156-0.703999 0.238l-64.563874 22.431956c-20.869959 7.249986-31.907938 30.043941-24.657952 50.9119 7.251986 20.865959 30.043941 31.905938 50.911901 24.655952l64.253874-22.323956a123.03976 123.03976 0 0 0 84.619835-117.085771v-130.939745a40.001922 40.001922 0 0 0-17.045967-32.755936zM562.000902 944.464155c-55.139892 0-99.999805-44.859912-99.999804-99.999804 5.493989-132.663741 194.52762-132.623741 199.999609 0 0 55.139892-44.859912 99.999805-99.999805 99.999804z m79.999844-773.05649v-130.939744a39.999922 39.999922 0 0 0-53.659895-37.595927L370.337277 82.07984c-55.735891 18.933963-90.335824 63.375876-90.335824 116.087773v276.69746C162.737682 394.929229-0.845998 481.52706 0.004 624.46678c9.879981 238.781534 350.143316 238.731534 359.997297-0.002V357.071303l197.375614-68.577866a123.03776 123.03776 0 0 0 84.623835-117.085772z m-461.999098 553.05692c-55.139892 0-99.999805-44.859912-99.999804-99.999805 5.493989-132.663741 194.52762-132.623741 199.999609 0 0 55.139892-44.859912 99.999805-99.999805 99.999805z m352.139313-511.885c-0.236 0.078-172.139664 59.799883-172.139664 59.799883V198.167613c0-24.543952 22.757956-35.86393 36.321929-40.425921 0.303999-0.102 165.677676-60.183882 165.677676-60.183883v73.847856c0 18.791963-11.999977 35.337931-29.859941 41.17392z" p-id="1464"></path></svg>